<svg id="Capa_1" data-name="Capa 1" xmlns="http://www.w3.org/2000/svg" viewBox="0 0 517.55 268.88"><defs><style>.cls-1{fill:transparent;}.cls-2{fill:#000;}.cls-3{fill:#4cb752;}</style></defs><title>LogoSicove</title><path class="cls-1" d="M283.72,11.16q122.5,0,245,0c1.73,0,2.25.28,2.25,2.16q-.09,132.34,0,264.68c0,1.84-.52,2-2.13,2q-256.64-.06-513.28,0c-1.62,0-2.14-.19-2.13-2q.09-132.34,0-264.68c0-1.89.52-2.16,2.25-2.16q120.58.07,241.16,0c-.46.86-1.28.45-1.92.49a294.17,294.17,0,0,0-80.61,15.75c-34.67,12.09-65.87,30.1-92.92,55s-47.33,54.32-59.73,89c-.45,1.27-1.37,2.5-.91,4-.07-.23-.19-.27-.34-.11s0,.14,0,.22l.36-.17a46,46,0,0,1,19.09-9.55,2.61,2.61,0,0,0,2-1.74,194.94,194.94,0,0,1,12.7-25,181.59,181.59,0,0,1,11-16.38c.43.46.77.79,1.07,1.14A334.86,334.86,0,0,1,91,156.47c1.39,2.11,2.65,2.94,5.17,2.1,3.71-1.23,7.52-2.13,11.3-3.13,1.32-.35,1.6-.73.73-2-4.58-6.84-9.2-13.66-14.21-20.18-1.33-1.73-1-2.45.59-3.65a343.18,343.18,0,0,1,31-20.48,325.92,325.92,0,0,1,32.67-16.57c1.11-.49,2-.93,3.07.38,8.76,10.49,17.76,20.78,23.94,33.13,1.48,3,2.73,3.44,5.94,2.89s6.46-1.1,9.71-1.51c4-.49,4.1-.51,1.89-4-1.23-1.93-.6-2.33,1.22-2.94a270.09,270.09,0,0,1,94.38-13.9,2.66,2.66,0,0,1,2.53,1.71,165.64,165.64,0,0,1,11,23.66c.28.77.43,1.44,1.41,1.7,5.77,1.5,11.52,3.07,17.7,4.73-8.15-29.07-24.33-53.27-43-76.35,1-.14,1.58-.29,2.2-.33a272.67,272.67,0,0,1,55.52,2.07,310.7,310.7,0,0,1,51.52,12,7.65,7.65,0,0,1,4.61,3.38c17.11,27.67,30.88,56.64,35.19,89.35.13,1,.36,1.54,1.54,1.64q6.69.55,13.36,1.35c1.65.2,2-.21,1.81-1.87A162,162,0,0,0,445.66,133c-1.41-4.21-2.95-8.38-4.43-12.58.22-.07.38-.18.51-.15,13.83,3.3,27.54,7,40.73,12.44a5,5,0,0,1,2.47,2.07,200.15,200.15,0,0,1,22.42,48.57c.27.89.31,1.9,1.36,2.37A93.42,93.42,0,0,1,527.57,197a78.23,78.23,0,0,0-2.66-11.68,212.88,212.88,0,0,0-41.3-78.78c-19.46-23.68-42.81-42.68-69.26-58.06A260.47,260.47,0,0,0,360,24.73a294.79,294.79,0,0,0-75.34-13.14C284.32,11.58,283.89,11.66,283.72,11.16ZM527.67,207.53a71.9,71.9,0,0,0-21.42-14.86c-16.1-7.57-33.28-11.13-50.76-13.48a364.85,364.85,0,0,0-48.81-3.08,9,9,0,0,1-3.72-.68c-14.12-6.19-28.19-12.5-42.47-18.34-17.25-7.06-34.75-13.41-53-17.25a343.37,343.37,0,0,0-85.35-6.93,226.42,226.42,0,0,0-64.74,12.38c-14.65,5.06-28.95,11.1-43.71,15.85a157.62,157.62,0,0,1-31.49,7.15c-10.26,1.1-20.59,1.25-30.82,2.7-6.76,1-13.41,2.3-19.4,5.77-10.52,6.1-14.64,15.79-15.17,27.43-.18,4-.4,3.32,3.19,3.32h507.7ZM187.87,278.91c6.15.29,11.79.23,17.13-2.28,10-4.71,16.83-12,18.07-23.29s-3.48-20-12.72-25.9c-13-8.33-27-8.39-40.74-2-10,4.68-15.55,13.24-16,24.4s5.37,19.2,14.63,24.94C174.44,278.65,181.23,279.58,187.87,278.91Zm205.06-31.59c-4.72,0-9.44.07-14.15,0-1.73,0-2.2.55-2.11,2.19a45.69,45.69,0,0,1,0,6.47c-.17,2,.68,2.41,2.47,2.34,3-.13,6.08,0,9.11-.06,1.73-.06,1.88.71,1.42,2a9.14,9.14,0,0,1-4.95,5.6c-8.73,3.9-21.34,1.36-24.13-11.56-1.71-7.92,2.36-16.11,9-19.09,5.91-2.65,16.2-1.84,20.1,6,.43.87,1,.85,1.76.58q6.53-2.36,13.09-4.67c1.09-.38,1-.85.48-1.72-2.67-4.29-6-8-10.57-10.18-12.13-5.79-24.49-5.59-36.26.44-10.91,5.59-15.93,15.27-14.87,27.55,1,11.52,7.48,19.15,18,23.64,6,2.58,12.36,2.17,18.66,2.17,17.31,0,29.55-12.63,29.13-30,0-1.39-.48-1.75-1.8-1.74C402.53,247.36,397.73,247.33,392.93,247.33Zm53.91-24.43c-2.32,0-4.65.11-7,0-1.65-.11-2.38.55-3,2-3.7,8.58-7.49,17.12-11.27,25.67-3.68,8.33-7.4,16.64-11,25-.27.62-1.92,2.17.64,2.17,4.8,0,9.6,0,14.39,0a1.9,1.9,0,0,0,1.93-1.41c.94-2.12,2-4.18,2.85-6.33a2.39,2.39,0,0,1,2.69-1.71c5.28.07,10.55,0,15.83,0,4.92,0,4.92,0,6.82,4.44.47,1.1,1.08,2.15,1.45,3.29.45,1.39,1.32,1.73,2.7,1.7,4.24-.08,8.48,0,12.71,0,2.71,0,2.75,0,1.7-2.47-7.18-16.65-14.39-33.28-21.52-49.95-.77-1.8-1.68-2.63-3.71-2.43S448.92,222.9,446.84,222.9ZM260,256.22c-.55-1.19-.93-2-1.29-2.78-4.33-9.52-8.71-19-12.95-28.58a2.92,2.92,0,0,0-3.25-2c-4.24.1-8.48,0-12.71,0-2.78,0-2.82,0-1.66,2.43q12.27,25.46,24.54,50.91a2.26,2.26,0,0,0,2.38,1.51c3.12-.09,6.24-.1,9.35,0a2.5,2.5,0,0,0,2.67-1.76c6.6-13.57,13.28-27.1,19.93-40.64,2-4,3.94-8.12,6-12.45-5.84,0-11.26,0-16.68,0-1.06,0-1.33.63-1.67,1.37q-2.69,5.88-5.4,11.75ZM35.69,279a29.81,29.81,0,0,0,17.44-4.27c8.35-5.11,10.69-20.89,1.33-26.39a24.29,24.29,0,0,0-5.17-2.49c-3.89-1.19-7.82-2.28-11.69-3.54-2.1-.69-4.14-1.74-4-4.42s2.32-3.43,4.41-4.1a9.17,9.17,0,0,1,2.36-.32,15.79,15.79,0,0,1,9.3,2.69c1.58,1,2.09.48,2.81-.85,1.42-2.59,2.92-5.14,4.52-7.62.83-1.29.68-1.83-.78-2.39A54.26,54.26,0,0,0,44.51,222c-6.94-1-13.78-.87-19.9,3.18-6.47,4.28-9,10.44-7.77,18,1,6.73,6,9.27,11.91,10.89,4,1.1,8.15,1.72,11.84,3.76,1.71.94,3,2.23,2.86,4.33s-1.49,3.47-3.38,4.26a12.32,12.32,0,0,1-6.35.82,22.88,22.88,0,0,1-11.14-4.68c-1.16-.88-1.76-.89-2.52.49-1.54,2.8-3.17,5.56-5,8.19-1.05,1.54-.53,2.13.85,2.85C22.15,277.39,28.66,279.34,35.69,279Zm469.87,0a30.53,30.53,0,0,0,13.86-2.38,17.4,17.4,0,0,0,10.91-17.29c-.23-6.59-3.91-11-11.6-13.55-3.7-1.25-7.51-2.19-11.23-3.39-2.11-.68-4.06-1.74-4.11-4.38,0-1.92,1.8-3.6,4.54-4.28a11.21,11.21,0,0,1,2.13-.26,16.52,16.52,0,0,1,9.53,2.75c1.31.8,1.92.56,2.59-.68,1.06-2,2.22-3.88,3.36-5.81,2.22-3.77,2.26-3.89-1.81-5.24-8.39-2.8-16.89-4.34-25.57-1.18a17.87,17.87,0,0,0-11.77,19.29c.84,5.94,4.67,9.61,11.66,11.48,4.15,1.11,8.46,1.78,12.31,3.86,1.72.93,2.94,2.24,2.81,4.36a4.76,4.76,0,0,1-3.38,4.25,12.71,12.71,0,0,1-6.59.77,22.84,22.84,0,0,1-10.89-4.67c-1.2-.92-1.75-.81-2.49.54-1.5,2.72-3.15,5.38-4.88,8-1,1.53-.71,2.29.86,3.11C492,277.39,498.4,279.3,505.57,279ZM299.81,250.2q0,12.71,0,25.43c0,1.15-.19,2.15,1.62,2.14,10.87-.08,21.75-.06,32.62,0,1.32,0,1.59-.47,1.56-1.66-.07-2.64-.13-5.28,0-7.91.1-1.73-.3-2.33-2.18-2.27-5,.15-10.07,0-15.11.09-1.61,0-2.32-.32-2.18-2.08a33.42,33.42,0,0,0,0-5.75c-.18-1.91.61-2.23,2.32-2.19,4.71.11,9.44,0,14.15.08,1.61,0,2-.48,2-2-.12-2.71-.1-5.44,0-8.15.05-1.39-.43-1.79-1.78-1.76q-4.67.12-9.35,0c-2.37-.06-5.6,1-6.86-.47s-.27-4.57-.45-6.94c-.12-1.62.48-2,2-2,5.2.09,10.4,0,15.59.07,1.49,0,1.93-.39,1.86-1.87-.12-2.71-.14-5.44,0-8.15.09-1.69-.6-1.93-2.06-1.92-10.55.05-21.11.07-31.66,0-1.7,0-2.14.49-2.12,2.15C299.85,233.4,299.81,241.8,299.81,250.2ZM146,241.52c0-5.61,0-10.55,0-15.5a1.76,1.76,0,0,0-1.51-2c-12.93-4-25.09-3-36.13,5.42-12.23,9.3-14.3,26.82-4.43,37.94,11,12.35,27.37,14,41,9.39.68-.23,1.11-.47,1.1-1.28,0-5.15,0-10.31,0-15.82-.59.41-.85.56-1.07.76-4.78,4.36-10.47,5.71-16.69,4.64-5.74-1-10.47-3.7-12.54-9.5-3.35-9.41,2.79-18.65,12.94-19.76C135,235.1,140.82,236.42,146,241.52Zm-75,8.72c0,8.47,0,16.94,0,25.41,0,1.69.45,2.17,2.13,2.12,4.07-.12,8.15-.09,12.22,0,1.47,0,2.1-.24,2.09-1.94q-.1-25.53,0-51.05c0-1.48-.44-1.92-1.9-1.89-3.91.09-7.83.14-11.74,0-2.11-.09-2.86.39-2.81,2.7C71,233.78,70.93,242,70.93,250.24Z" transform="translate(-13.43 -11.12)"/><path class="cls-2" d="M20.76,175.45c-.47-1.5.45-2.73.9-4,12.39-34.71,32.71-64.15,59.73-89s58.25-42.92,92.92-55a294.17,294.17,0,0,1,80.61-15.75c.64,0,1.46.37,1.92-.49h6.72c.4.55,1,.4,1.52.4q6.77,0,13.55,0c.6,0,1.29.25,1.73-.43h3.36c.17.5.6.42,1,.43A294.79,294.79,0,0,1,360,24.73a260.47,260.47,0,0,1,54.31,23.72c26.45,15.39,49.8,34.39,69.26,58.06a212.88,212.88,0,0,1,41.3,78.78A78.23,78.23,0,0,1,527.57,197a93.42,93.42,0,0,0-18.84-11.31c-1.05-.48-1.09-1.49-1.36-2.37a200.15,200.15,0,0,0-22.42-48.57,5,5,0,0,0-2.47-2.07c-13.2-5.4-26.9-9.13-40.73-12.44-.13,0-.29.08-.51.15,1.48,4.2,3,8.37,4.43,12.58a162,162,0,0,1,8.14,36.64c.15,1.67-.16,2.07-1.81,1.87q-6.67-.81-13.36-1.35c-1.19-.1-1.41-.66-1.54-1.64-4.3-32.71-18.08-61.68-35.19-89.35a7.65,7.65,0,0,0-4.61-3.38,310.7,310.7,0,0,0-51.52-12,272.67,272.67,0,0,0-55.52-2.07c-.63,0-1.24.18-2.2.33,18.64,23.07,34.83,47.28,43,76.35-6.18-1.66-11.93-3.23-17.7-4.73-1-.26-1.13-.93-1.41-1.7a165.64,165.64,0,0,0-11-23.66,2.66,2.66,0,0,0-2.53-1.71A270.09,270.09,0,0,0,204,120.5c-1.82.61-2.45,1-1.22,2.94,2.21,3.46,2.07,3.48-1.89,4-3.25.4-6.48,1-9.71,1.51s-4.46.07-5.94-2.89c-6.18-12.35-15.19-22.65-23.94-33.13-1.1-1.32-2-.87-3.07-.38a325.92,325.92,0,0,0-32.67,16.57,343.18,343.18,0,0,0-31,20.48c-1.62,1.2-1.92,1.92-.59,3.65,5,6.53,9.63,13.34,14.21,20.18.87,1.3.59,1.69-.73,2-3.78,1-7.6,1.91-11.3,3.13-2.53.84-3.78,0-5.17-2.1a334.86,334.86,0,0,0-24.44-32.59c-.3-.36-.64-.69-1.07-1.14a181.59,181.59,0,0,0-11,16.38,194.94,194.94,0,0,0-12.7,25,2.61,2.61,0,0,1-2,1.74,46,46,0,0,0-19.09,9.55ZM410.4,63l0-.34-.3.09.33.2c-.12.56.31.88.56,1.26A273.3,273.3,0,0,1,433.1,102.3a3.13,3.13,0,0,0,2.56,1.77c5.54,1.19,11.09,2.32,16.59,3.66,5.21,1.27,10.36,2.76,15.91,4.25-.59-.76-.91-1.22-1.27-1.64a231.51,231.51,0,0,0-50.6-44C414.42,65.09,412.79,63.34,410.4,63Zm-265.82-7.8c3.72,3.23,7.22,6.11,10.55,9.19a273.29,273.29,0,0,1,37.25,42.43c.71,1,1.19,1.8,2.81,1.23a281.49,281.49,0,0,1,92.82-16,4.22,4.22,0,0,0,2.35-.25c0-.89-.68-1.43-1.11-2.05A257.48,257.48,0,0,0,260,54.63c-8.48-8.5-17.39-16.46-27.56-23A16.92,16.92,0,0,0,219,29.15a281.29,281.29,0,0,0-62.29,20.08C152.65,51.08,148.72,53.16,144.58,55.23ZM249.76,25.17A206.24,206.24,0,0,1,275.1,47.87a2.2,2.2,0,0,0,2.16.6,211.48,211.48,0,0,1,24.39-1.71A293.39,293.39,0,0,1,377.24,55l8.35,2A133.36,133.36,0,0,0,374,44.37a4,4,0,0,0-1.29-.62,248.71,248.71,0,0,0-24.42-8.47,279.39,279.39,0,0,0-91.75-10.57C254.54,24.8,252.49,25,249.76,25.17Zm-100.5,55A184,184,0,0,0,131.1,64.3c-1.08-.82-1.72-.27-2.52.24C122.91,68.14,117.37,71.92,112,76a234.3,234.3,0,0,0-35.3,32.7c-1,1.14-1.05,1.8,0,2.91a55.18,55.18,0,0,1,5.08,6.05c1.13,1.61,1.88,1.22,3.16.26a325,325,0,0,1,52.7-32.15C141.44,83.89,145.25,82.1,149.27,80.19Z" transform="translate(-13.43 -11.12)"/><path class="cls-3" d="M280.36,11.16c-.44.68-1.13.43-1.73.43q-6.77,0-13.55,0c-.54,0-1.13.15-1.52-.4Z" transform="translate(-13.43 -11.12)"/><path class="cls-3" d="M527.67,207.53H20c-3.6,0-3.37.63-3.19-3.32.52-11.64,4.65-21.33,15.17-27.43,6-3.47,12.64-4.81,19.4-5.77,10.22-1.45,20.56-1.6,30.82-2.7a157.62,157.62,0,0,0,31.49-7.15c14.76-4.75,29.06-10.79,43.71-15.85a226.42,226.42,0,0,1,64.74-12.38,343.37,343.37,0,0,1,85.35,6.93c18.28,3.84,35.78,10.19,53,17.25,14.27,5.84,28.35,12.15,42.47,18.34a9,9,0,0,0,3.72.68,364.85,364.85,0,0,1,48.81,3.08c17.48,2.35,34.66,5.91,50.76,13.48A71.9,71.9,0,0,1,527.67,207.53ZM266.14,175.74c0-.38.05-.56,0-.69-5.14-11.17-10.31-22.33-15.4-33.52a2.09,2.09,0,0,0-2.24-1.3,194.92,194.92,0,0,0-97.81,21.85,165.33,165.33,0,0,0-14.93,8.54Zm97,1.34C334,156.24,301.85,145,266.73,141.94c-.06.28-.16.46-.12.57q6.37,15.89,12.75,31.78c.39,1,1.08,1,1.9,1,5.11.13,10.22.29,15.34.42q27.44.68,54.88,1.33C355.2,177.15,358.92,177.08,363.19,177.08Z" transform="translate(-13.43 -11.12)"/><path class="cls-2" d="M187.87,278.91c-6.64.67-13.44-.26-19.61-4.09-9.26-5.74-15.07-13.7-14.63-24.94s6-19.72,16-24.4c13.69-6.44,27.7-6.37,40.74,2,9.24,5.91,14,14.78,12.72,25.9S215,271.93,205,276.63C199.67,279.15,194,279.21,187.87,278.91Zm.11-13A21.48,21.48,0,0,0,197.1,264c10.91-5,12.3-18.32,2.67-25.47-6.95-5.15-18.33-4.46-24.6,1.5a14,14,0,0,0-.62,20.14A18.41,18.41,0,0,0,188,266Z" transform="translate(-13.43 -11.12)"/><path class="cls-3" d="M392.93,247.33c4.8,0,9.6,0,14.39,0,1.32,0,1.76.34,1.8,1.74.42,17.32-11.83,30-29.13,30-6.3,0-12.61.41-18.66-2.17-10.52-4.49-17-12.12-18-23.64-1.06-12.28,4-22,14.87-27.55,11.77-6,24.14-6.22,36.26-.44,4.6,2.2,7.89,5.9,10.57,10.18.55.88.6,1.34-.48,1.72q-6.56,2.29-13.09,4.67c-.77.28-1.32.3-1.76-.58-3.9-7.84-14.19-8.65-20.1-6-6.65,3-10.73,11.17-9,19.09,2.78,12.92,15.4,15.46,24.13,11.56a9.14,9.14,0,0,0,4.95-5.6c.45-1.32.31-2.09-1.42-2-3,.11-6.08-.06-9.11.06-1.79.07-2.64-.32-2.47-2.34a45.69,45.69,0,0,0,0-6.47c-.09-1.63.38-2.23,2.11-2.19C383.5,247.4,388.22,247.33,392.93,247.33Z" transform="translate(-13.43 -11.12)"/><path class="cls-3" d="M446.84,222.9c2.08,0,4.17.15,6.23,0s2.94.64,3.71,2.43c7.12,16.67,14.34,33.3,21.52,49.95,1.05,2.44,1,2.46-1.7,2.47-4.24,0-8.48,0-12.71,0-1.38,0-2.24-.32-2.7-1.7-.37-1.13-1-2.19-1.45-3.29-1.9-4.44-1.9-4.44-6.82-4.44-5.28,0-10.56,0-15.83,0a2.39,2.39,0,0,0-2.69,1.71c-.83,2.16-1.91,4.22-2.85,6.33a1.9,1.9,0,0,1-1.93,1.41c-4.8-.06-9.6,0-14.39,0-2.55,0-.91-1.54-.64-2.17,3.62-8.35,7.34-16.67,11-25,3.78-8.55,7.57-17.09,11.27-25.67.63-1.46,1.35-2.12,3-2C442.2,223,444.52,222.9,446.84,222.9Zm-7.14,34.48c4.29,0,8.28,0,12.26,0,1.06,0,1.49-.26,1-1.37-2.08-5.22-4.13-10.44-6.38-16.15Z" transform="translate(-13.43 -11.12)"/><path class="cls-2" d="M260,256.22,269.33,236q2.7-5.88,5.4-11.75c.34-.74.61-1.38,1.67-1.37,5.42,0,10.84,0,16.68,0-2.1,4.34-4.05,8.4-6,12.45-6.65,13.54-13.33,27.07-19.93,40.64a2.5,2.5,0,0,1-2.67,1.76c-3.12-.11-6.24-.09-9.35,0a2.26,2.26,0,0,1-2.38-1.51q-12.25-25.47-24.54-50.91c-1.16-2.41-1.12-2.42,1.66-2.43,4.24,0,8.48.07,12.71,0a2.92,2.92,0,0,1,3.25,2c4.24,9.56,8.61,19.06,12.95,28.58C259.12,254.23,259.49,255,260,256.22Z" transform="translate(-13.43 -11.12)"/><path class="cls-2" d="M35.69,279c-7,.36-13.54-1.58-19.75-4.83-1.38-.72-1.9-1.31-.85-2.85,1.8-2.63,3.43-5.39,5-8.19.76-1.38,1.35-1.37,2.52-.49a22.88,22.88,0,0,0,11.14,4.68,12.32,12.32,0,0,0,6.35-.82c1.89-.79,3.25-2.1,3.38-4.26s-1.15-3.39-2.86-4.33c-3.7-2-7.86-2.65-11.84-3.76-5.88-1.62-10.86-4.16-11.91-10.89-1.18-7.58,1.3-13.74,7.77-18,6.12-4,13-4.17,19.9-3.18a54.26,54.26,0,0,1,11.76,3.22c1.46.56,1.61,1.1.78,2.39-1.6,2.48-3.1,5-4.52,7.62-.73,1.33-1.24,1.85-2.81.85a15.79,15.79,0,0,0-9.3-2.69,9.17,9.17,0,0,0-2.36.32c-2.09.67-4.25,1.48-4.41,4.1s1.87,3.74,4,4.42c3.87,1.26,7.79,2.35,11.69,3.54a24.29,24.29,0,0,1,5.17,2.49c9.35,5.5,7,21.28-1.33,26.39A29.81,29.81,0,0,1,35.69,279Z" transform="translate(-13.43 -11.12)"/><path class="cls-3" d="M505.57,279c-7.17.34-13.59-1.58-19.74-4.76-1.58-.82-1.89-1.58-.86-3.11,1.73-2.59,3.38-5.24,4.88-8,.75-1.35,1.29-1.45,2.49-.54a22.84,22.84,0,0,0,10.89,4.67,12.71,12.71,0,0,0,6.59-.77,4.76,4.76,0,0,0,3.38-4.25c.13-2.12-1.08-3.43-2.81-4.36-3.85-2.08-8.16-2.74-12.31-3.86-7-1.88-10.82-5.55-11.66-11.48a17.87,17.87,0,0,1,11.77-19.29c8.68-3.16,17.18-1.62,25.57,1.18,4.07,1.36,4,1.47,1.81,5.24-1.13,1.93-2.3,3.84-3.36,5.81-.67,1.24-1.29,1.48-2.59.68a16.52,16.52,0,0,0-9.53-2.75,11.21,11.21,0,0,0-2.13.26c-2.74.68-4.58,2.35-4.54,4.28,0,2.63,2,3.69,4.11,4.38,3.72,1.2,7.52,2.15,11.23,3.39,7.69,2.59,11.36,7,11.6,13.55a17.4,17.4,0,0,1-10.91,17.29A30.53,30.53,0,0,1,505.57,279Z" transform="translate(-13.43 -11.12)"/><path class="cls-2" d="M299.81,250.2c0-8.4,0-16.79,0-25.19,0-1.66.42-2.16,2.12-2.15,10.55.08,21.11.06,31.66,0,1.46,0,2.16.23,2.06,1.92-.15,2.71-.12,5.44,0,8.15.06,1.48-.37,1.9-1.86,1.87-5.2-.1-10.39,0-15.59-.07-1.53,0-2.13.34-2,2,.18,2.37-.74,5.5.45,6.94s4.49.41,6.86.47q4.67.12,9.35,0c1.35,0,1.83.36,1.78,1.76-.1,2.71-.11,5.44,0,8.15.07,1.55-.37,2.06-2,2-4.72-.11-9.44,0-14.15-.08-1.7,0-2.5.28-2.32,2.19a33.42,33.42,0,0,1,0,5.75c-.14,1.76.57,2.11,2.18,2.08,5-.1,10.08.06,15.11-.09,1.88-.06,2.28.54,2.18,2.27-.15,2.63-.09,5.28,0,7.91,0,1.19-.24,1.66-1.56,1.66-10.87-.05-21.75-.07-32.62,0-1.81,0-1.62-1-1.62-2.14Q299.82,262.91,299.81,250.2Z" transform="translate(-13.43 -11.12)"/><path class="cls-2" d="M146,241.52c-5.15-5.11-10.95-6.42-17.36-5.72-10.15,1.11-16.28,10.34-12.94,19.76,2.06,5.8,6.8,8.51,12.54,9.5,6.22,1.07,11.91-.28,16.69-4.64.22-.2.48-.34,1.07-.76,0,5.51,0,10.67,0,15.82,0,.81-.42,1.05-1.1,1.28-13.58,4.6-30,3-41-9.39-9.87-11.13-7.8-28.65,4.43-37.94,11-8.4,23.21-9.44,36.13-5.42a1.76,1.76,0,0,1,1.51,2C145.93,231,146,235.92,146,241.52Z" transform="translate(-13.43 -11.12)"/><path class="cls-2" d="M70.93,250.24c0-8.23.1-16.46-.06-24.69,0-2.31.71-2.78,2.81-2.7,3.91.16,7.83.1,11.74,0,1.46,0,1.91.4,1.9,1.89q-.07,25.53,0,51.05c0,1.7-.63,2-2.09,1.94-4.07-.08-8.15-.11-12.22,0-1.68,0-2.15-.42-2.13-2.12C71,267.18,70.93,258.71,70.93,250.24Z" transform="translate(-13.43 -11.12)"/><path class="cls-2" d="M20.72,175.38l-.36.17c0-.07,0-.17,0-.22s.27-.12.34.11Z" transform="translate(-13.43 -11.12)"/><path class="cls-1" d="M144.58,55.23c4.14-2.06,8.07-4.14,12.1-6A281.29,281.29,0,0,1,219,29.15a16.92,16.92,0,0,1,13.46,2.51c10.17,6.51,19.08,14.47,27.56,23a257.48,257.48,0,0,1,29.26,35.13c.43.62,1.11,1.16,1.11,2.05a4.22,4.22,0,0,1-2.35.25,281.49,281.49,0,0,0-92.82,16c-1.62.57-2.09-.23-2.81-1.23a273.29,273.29,0,0,0-37.25-42.43C151.8,61.34,148.29,58.45,144.58,55.23Z" transform="translate(-13.43 -11.12)"/><path class="cls-1" d="M249.76,25.17c2.73-.19,4.77-.37,6.82-.46a279.39,279.39,0,0,1,91.75,10.57,248.71,248.71,0,0,1,24.42,8.47,4,4,0,0,1,1.29.62A133.36,133.36,0,0,1,385.59,57l-8.35-2a293.39,293.39,0,0,0-75.58-8.21,211.48,211.48,0,0,0-24.39,1.71,2.2,2.2,0,0,1-2.16-.6A206.24,206.24,0,0,0,249.76,25.17Z" transform="translate(-13.43 -11.12)"/><path class="cls-1" d="M149.27,80.19c-4,1.91-7.83,3.7-11.62,5.54a325,325,0,0,0-52.7,32.15c-1.28,1-2,1.35-3.16-.26a55.18,55.18,0,0,0-5.08-6.05c-1-1.11-1-1.77,0-2.91A234.3,234.3,0,0,1,112,76c5.36-4,10.9-7.83,16.57-11.43.8-.51,1.44-1.06,2.52-.24A184,184,0,0,1,149.27,80.19Z" transform="translate(-13.43 -11.12)"/><path class="cls-1" d="M410.4,63c2.39.31,4,2.06,5.9,3.27a231.51,231.51,0,0,1,50.6,44c.36.42.68.87,1.27,1.64-5.54-1.49-10.7-3-15.91-4.25-5.5-1.34-11.05-2.47-16.59-3.66a3.13,3.13,0,0,1-2.56-1.77A273.3,273.3,0,0,0,411,64.24c-.26-.38-.69-.7-.56-1.26Z" transform="translate(-13.43 -11.12)"/><path class="cls-1" d="M410.46,63l-.33-.2.3-.09,0,.34Z" transform="translate(-13.43 -11.12)"/><path class="cls-1" d="M266.14,175.74l-130.39-5.1a165.33,165.33,0,0,1,14.93-8.54,194.92,194.92,0,0,1,97.81-21.85,2.09,2.09,0,0,1,2.24,1.3c5.1,11.19,10.26,22.35,15.4,33.52C266.19,175.18,266.14,175.36,266.14,175.74Z" transform="translate(-13.43 -11.12)"/><path class="cls-1" d="M363.19,177.08c-4.28,0-8,.07-11.71,0q-27.44-.63-54.88-1.33c-5.11-.13-10.22-.29-15.34-.42-.82,0-1.51,0-1.9-1q-6.34-15.9-12.75-31.78c0-.11.05-.29.12-.57C301.85,145,334,156.24,363.19,177.08Z" transform="translate(-13.43 -11.12)"/><path class="cls-1" d="M188,266a18.41,18.41,0,0,1-13.43-5.74,14,14,0,0,1,.62-20.14c6.27-6,17.65-6.66,24.6-1.5C209.39,245.72,208,259,197.1,264A21.48,21.48,0,0,1,188,266Z" transform="translate(-13.43 -11.12)"/><path class="cls-1" d="M439.71,257.38l6.93-17.51c2.25,5.7,4.3,10.93,6.38,16.15.44,1.11,0,1.38-1,1.37C448,257.35,444,257.38,439.71,257.38Z" transform="translate(-13.43 -11.12)"/></svg>